#N canvas 242 50 910 757 10;
#X obj 165 543 * 6.28319;
#X obj 165 567 sin;
#X obj 165 516 / 360;
#X obj 166 478 + 1;
#X obj 166 449 f;
#X obj 166 419 bng 15 250 50 0 empty empty empty 17 7 0 10 -262144
-1 -1;
#X msg 197 413 0;
#X obj 166 386 metro 50;
#X obj 167 362 tgl 15 0 empty empty empty 17 7 0 10 -262144 -1 -1 1
1;
#X floatatom 165 590 5 0 0 0 - - -, f 5;
#X obj 195 478 moses 360;
#X obj 165 609 + 1;
#X obj 165 631 / 2;
#X obj 165 654 * 127;
#X floatatom 209 591 5 0 0 0 - - -, f 5;
#X obj 209 610 + 1;
#X obj 209 632 / 2;
#X obj 209 655 * 127;
#X obj 209 568 cos;
#X obj 137 696 ctlout 10 1;
#X obj 214 697 ctlout 11 1;
#X obj 338 544 * 6.28319;
#X obj 338 568 sin;
#X obj 338 517 / 360;
#X obj 339 479 + 1;
#X obj 339 450 f;
#X obj 339 420 bng 15 250 50 0 empty empty empty 17 7 0 10 -262144
-1 -1;
#X msg 361 421 0;
#X obj 340 363 tgl 15 0 empty empty empty 17 7 0 10 -262144 -1 -1 1
1;
#X floatatom 338 591 5 0 0 0 - - -, f 5;
#X obj 368 479 moses 360;
#X obj 338 610 + 1;
#X obj 338 632 / 2;
#X obj 338 655 * 127;
#X floatatom 382 592 5 0 0 0 - - -, f 5;
#X obj 382 611 + 1;
#X obj 382 633 / 2;
#X obj 382 656 * 127;
#X obj 382 569 cos;
#X obj 387 698 ctlout 11 2;
#X obj 310 697 ctlout 10 2;
#X obj 339 387 metro 50;
#X floatatom 289 200 5 50 1000 1 global_rotation_speed - -, f 5;
#X obj 523 542 * 6.28319;
#X obj 523 566 sin;
#X obj 523 515 / 360;
#X obj 524 477 + 1;
#X obj 524 448 f;
#X obj 524 418 bng 15 250 50 0 empty empty empty 17 7 0 10 -262144
-1 -1;
#X msg 546 419 0;
#X obj 523 204 tgl 15 0 empty empty empty 17 7 0 10 -262144 -1 -1 0
1;
#X floatatom 523 589 5 0 0 0 - - -, f 5;
#X obj 553 477 moses 360;
#X obj 523 608 + 1;
#X obj 523 630 / 2;
#X obj 523 653 * 127;
#X obj 524 385 metro 50;
#X floatatom 567 590 5 0 0 0 - - -, f 5;
#X obj 567 609 + 1;
#X obj 567 631 / 2;
#X obj 567 654 * 127;
#X obj 567 567 cos;
#X msg 232 412 180;
#X msg 271 443;
#X obj 157 199 bng 15 250 50 0 empty empty 180deg_phase_diff 17 7 0
10 -262144 -1 -1;
#X obj 159 221 bng 15 250 50 0 empty empty 0deg_phase_diff 17 7 0 10
-262144 -1 -1;
#X text 544 207 z-movement;
#X msg 530 231 1;
#X text 554 231 z min;
#X text 624 230 z max;
#X msg 602 228 127;
#X floatatom 290 223 5 50 1000 1 ch1_rotation_speed - -, f 5;
#X obj 159 152 tgl 25 0 empty empty ALL_OFF/ON 27 7 0 15 -258113 -1
-1 1 1;
#X text 664 229 currently 127 = 5m high;
#X text 408 146 BUG you need to push some buttons multiple times before
effective...;
#X obj 495 695 ctlout 12 1;
#X obj 572 696 ctlout 12 2;
#X connect 0 0 1 0;
#X connect 0 0 18 0;
#X connect 1 0 9 0;
#X connect 2 0 0 0;
#X connect 3 0 4 1;
#X connect 3 0 2 0;
#X connect 3 0 10 0;
#X connect 4 0 3 0;
#X connect 5 0 4 0;
#X connect 6 0 4 1;
#X connect 7 0 5 0;
#X connect 8 0 7 0;
#X connect 9 0 11 0;
#X connect 10 1 6 0;
#X connect 11 0 12 0;
#X connect 12 0 13 0;
#X connect 13 0 19 0;
#X connect 14 0 15 0;
#X connect 15 0 16 0;
#X connect 16 0 17 0;
#X connect 17 0 20 0;
#X connect 18 0 14 0;
#X connect 21 0 22 0;
#X connect 21 0 38 0;
#X connect 22 0 29 0;
#X connect 23 0 21 0;
#X connect 24 0 25 1;
#X connect 24 0 23 0;
#X connect 24 0 30 0;
#X connect 25 0 24 0;
#X connect 26 0 25 0;
#X connect 27 0 25 1;
#X connect 28 0 41 0;
#X connect 29 0 31 0;
#X connect 30 1 27 0;
#X connect 31 0 32 0;
#X connect 32 0 33 0;
#X connect 33 0 40 0;
#X connect 34 0 35 0;
#X connect 35 0 36 0;
#X connect 36 0 37 0;
#X connect 37 0 39 0;
#X connect 38 0 34 0;
#X connect 41 0 26 0;
#X connect 42 0 7 1;
#X connect 42 0 41 1;
#X connect 42 0 56 1;
#X connect 43 0 44 0;
#X connect 43 0 61 0;
#X connect 44 0 51 0;
#X connect 45 0 43 0;
#X connect 46 0 47 1;
#X connect 46 0 45 0;
#X connect 46 0 52 0;
#X connect 47 0 46 0;
#X connect 48 0 47 0;
#X connect 49 0 47 1;
#X connect 50 0 56 0;
#X connect 51 0 53 0;
#X connect 52 1 49 0;
#X connect 53 0 54 0;
#X connect 54 0 55 0;
#X connect 55 0 75 0;
#X connect 56 0 48 0;
#X connect 57 0 58 0;
#X connect 58 0 59 0;
#X connect 59 0 60 0;
#X connect 60 0 76 0;
#X connect 61 0 57 0;
#X connect 62 0 4 1;
#X connect 64 0 62 0;
#X connect 64 0 27 0;
#X connect 65 0 6 0;
#X connect 65 0 27 0;
#X connect 67 0 75 0;
#X connect 67 0 76 0;
#X connect 70 0 75 0;
#X connect 70 0 76 0;
#X connect 71 0 7 1;
#X connect 72 0 8 0;
#X connect 72 0 28 0;
#X connect 72 0 50 0;
